<?xml version="1.0" encoding="UTF-8"?>
<svg id="Layer_1" data-name="Layer 1" xmlns="http://www.w3.org/2000/svg" xmlns:xlink="http://www.w3.org/1999/xlink" viewBox="0 0 1000 1000">
  <defs>
    <style>
      .cls-1 {
        fill: url(#linear-gradient);
      }

      .cls-2 {
        fill: #fff;
      }
    </style>
    <linearGradient id="linear-gradient" x1="500" y1="0" x2="500" y2="1000" gradientUnits="userSpaceOnUse">
      <stop offset="0" stop-color="#5d267e"/>
      <stop offset=".22" stop-color="#552176"/>
      <stop offset=".55" stop-color="#421662"/>
      <stop offset=".94" stop-color="#220342"/>
      <stop offset="1" stop-color="#1c003c"/>
    </linearGradient>
  </defs>
  <rect class="cls-1" width="1000" height="1000" rx="104.57" ry="104.57"/>
  <g>
    <path class="cls-2" d="M864.86,240.12v364.07h-.96c-4.34,45.22-22.79,82.49-55.35,111.79-32.44,29.3-71.39,43.9-116.98,43.9-49.2,0-90.45-16.52-123.61-49.68-33.28-33.16-49.93-74.29-49.93-123.49s16.64-90.45,49.93-123.61c33.28-33.16,74.41-49.93,123.61-49.93,38.47,0,73.2,11.58,103.95,34.85v-207.9h69.34ZM617.28,512.42c-19.9,19.78-29.79,44.62-29.79,74.29s9.89,54.51,29.79,74.29c19.9,19.78,44.74,29.67,74.41,29.67s54.51-9.89,74.29-29.67c19.78-19.78,29.67-44.5,29.67-74.29s-9.89-54.51-29.67-74.29c-19.78-19.78-44.62-29.67-74.29-29.67s-54.51,9.89-74.41,29.67"/>
    <path class="cls-2" d="M318.2,450.32l-5.19-1.69c-56.2-18.45-93.1-33.4-93.1-69.58,0-38.47,49.2-68.38,91.53-68.38s75.01,22.19,89,58.01l2.89,7.36h72.36l-2.05-13.39c-6.39-40.88-61.14-121.44-159.67-121.44-88.28,0-165.58,66.33-165.58,141.82,0,56.32,43.9,97.8,134.22,126.74l2.89.96c64.52,20.86,131.09,42.33,131.09,102.38,0,56.32-55.35,76.34-102.75,76.34-60.3,0-109.38-43.17-109.38-96.11v-11.58h-69.34v11.58c0,102.26,92.86,165.58,178.84,165.58,101.42,0,172.21-59.94,172.21-145.8,0-108.41-97.08-139.77-167.99-162.68"/>
  </g>
</svg>